<?xml version="1.0" encoding="utf-8"?>
<!-- Generator: Adobe Illustrator 24.0.2, SVG Export Plug-In . SVG Version: 6.00 Build 0)  -->
<svg version="1.1" id="Layer_1" xmlns="http://www.w3.org/2000/svg" xmlns:xlink="http://www.w3.org/1999/xlink" x="0px" y="0px"
	 viewBox="0 0 226.1 108.9" style="enable-background:new 0 0 226.1 108.9;" xml:space="preserve">
<style type="text/css">
	.st0{fill:#FFFFFF;}
</style>
<g id="Layer_2_1_">
	<g id="Gradiente">
		<path class="st0" d="M148,47.2l-34.5,11c-0.2,0.1-0.3,0.2-0.4,0.4L107.3,73c-0.1,0.3,0,0.7,0.4,0.8c0.1,0.1,0.3,0.1,0.5,0
			l30.4-9.9l3.4,9.4c0.1,0.3,0.3,0.4,0.6,0.4H158c0.4,0,0.6-0.3,0.6-0.7c0-0.1,0-0.2,0-0.2l-9.8-25.3c-0.1-0.2-0.3-0.4-0.6-0.4
			L148,47.2 M57.3,1.3c-0.3,0-0.5,0.2-0.6,0.4L39.2,40L21.8,1.7c-0.1-0.3-0.3-0.4-0.6-0.4H0.6C0.3,1.3,0,1.6,0,1.9C0,2,0,2,0,2v71.2
			c0,0.4,0.3,0.7,0.6,0.7c0,0,0,0,0,0h14.1c0.4,0,0.6-0.3,0.6-0.7l0,0V21.6l18,42.9c0.1,0.2,0.3,0.4,0.6,0.4h10.5
			c0.3,0,0.5-0.2,0.6-0.4l18-42.9v51.5c0,0.4,0.3,0.7,0.7,0.7H78c0.4,0,0.6-0.3,0.6-0.7V2c0-0.4-0.2-0.7-0.6-0.7c0,0,0,0,0,0H57.3z
			 M112.3,1.3c-0.3,0-0.5,0.2-0.6,0.4L84.2,72.9c-0.1,0.3,0,0.7,0.4,0.8c0.1,0,0.1,0,0.2,0h14.5l9-22L121.6,17l10.8,28.2
			c0.1,0.3,0.5,0.5,0.8,0.4l12.6-4.1c0.3-0.1,0.5-0.5,0.4-0.8c0,0,0,0,0,0L131.4,1.7c-0.1-0.3-0.3-0.4-0.6-0.4L112.3,1.3z
			 M156.6,37.5c0,22.8,17.4,37.6,38.6,37.6c11.7,0.2,22.9-4.8,30.7-13.5c0.1-0.1,0.2-0.3,0.2-0.4V32.1c0-0.4-0.3-0.6-0.6-0.6
			c0,0,0,0,0,0h-24.1c-0.4,0-4.9,12.6-4.9,12.6c0,0.4,0.3,0.6,0.6,0.7h13.8v11.1c-4.4,3.6-10,5.6-15.7,5.5
			c-13.2,0-22.7-10.1-22.7-23.8s9.5-23.8,22.7-23.8c5.1,0,10.1,1.9,13.9,5.3c0.2,0.1,0.4,0.2,0.6,0.1l13.7-4.4
			c0.3-0.1,0.5-0.5,0.4-0.8c0-0.1,0-0.1-0.1-0.2C218,6.1,208.9,0,195.2,0C174,0,156.6,14.6,156.6,37.5"/>
		<path class="st0" d="M123.4,106.8c-0.2-0.1-0.3-0.4-0.3-0.6c0-0.4,0.3-0.8,0.8-0.8c0,0,0,0,0,0c0.2,0,0.4,0.1,0.5,0.2
			c1.3,1.2,2.9,1.8,4.6,1.8c2,0,3.2-1,3.2-2.5l0,0c0-1.4-0.7-2.1-3.8-2.8c-3.4-0.7-4.9-1.8-4.9-4.2l0,0c0-2.3,2-4,4.8-4
			c1.7-0.1,3.3,0.4,4.7,1.3c0.2,0.2,0.3,0.4,0.4,0.7c0,0.4-0.3,0.8-0.8,0.8c0,0,0,0,0,0c-0.2,0-0.3,0-0.5-0.1
			c-1.1-0.8-2.4-1.3-3.8-1.3c-1.9,0-3.1,1-3.1,2.4l0,0c0,1.4,0.7,2.2,4,2.9s4.8,1.9,4.8,4.2l0,0c0,2.5-2.1,4.2-5,4.2
			C126.9,108.8,125,108.1,123.4,106.8"/>
		<path class="st0" d="M138.1,108.6c-0.5,0-0.8-0.4-0.8-0.8c0,0,0,0,0,0v-13c0-0.5,0.3-0.8,0.8-0.8c0,0,0,0,0,0h9.1
			c0.4,0,0.8,0.3,0.8,0.8c0,0.4-0.3,0.8-0.8,0.8h-8.2v5h7.3c0.4,0,0.7,0.4,0.7,0.8c0,0.4-0.3,0.6-0.7,0.7h-7.3v5.2h8.3
			c0.4,0,0.7,0.3,0.8,0.7c0,0,0,0,0,0c0,0.4-0.3,0.8-0.7,0.8c0,0,0,0,0,0L138.1,108.6z"/>
		<path class="st0" d="M150.6,101.3L150.6,101.3c-0.1-4.1,3-7.5,7.1-7.6c0.1,0,0.1,0,0.2,0c1.8-0.1,3.6,0.5,5,1.6
			c0.2,0.2,0.3,0.4,0.3,0.7c0,0.4-0.3,0.8-0.8,0.8c-0.2,0-0.4-0.1-0.6-0.2c-1.1-0.9-2.5-1.4-4-1.3c-3.2,0-5.5,2.8-5.5,6l0,0
			c0,3.5,2.2,6.1,5.8,6.1c1.5,0,3-0.5,4.2-1.5v-3.7h-3.9c-0.4,0-0.7-0.3-0.7-0.7c0-0.4,0.3-0.7,0.7-0.8h4.6c0.5,0,0.8,0.4,0.8,0.8
			c0,0,0,0,0,0v4.5c0,0.4-0.2,0.8-0.6,1c-1.5,1.2-3.4,1.8-5.3,1.8C153.4,108.8,150.5,105.5,150.6,101.3"/>
		<path class="st0" d="M167.3,102.5v-7.8c0-0.5,0.4-0.8,0.8-0.8c0.5,0,0.8,0.4,0.8,0.8c0,0,0,0,0,0v7.7c0,3.2,1.7,5,4.5,5
			s4.4-1.6,4.4-4.8v-7.9c0-0.4,0.3-0.8,0.8-0.8c0,0,0,0,0.1,0c0.5,0,0.8,0.4,0.8,0.8c0,0,0,0,0,0v7.7c0,4.3-2.4,6.5-6.1,6.5
			S167.3,106.6,167.3,102.5"/>
		<path class="st0" d="M183.4,94.8c0-0.5,0.3-0.8,0.8-0.8c0,0,0,0,0,0h5.5c1.5-0.1,3,0.4,4.1,1.5c0.7,0.8,1.2,1.8,1.1,2.9l0,0
			c0,2.4-1.6,3.8-3.9,4.3l3.6,4.7c0.2,0.2,0.3,0.4,0.3,0.6c0,0.4-0.4,0.8-0.8,0.8c-0.3,0-0.6-0.2-0.8-0.4l-4.1-5.4H185v5
			c0,0.5-0.4,0.8-0.8,0.8c-0.5,0-0.8-0.4-0.8-0.8c0,0,0,0,0,0L183.4,94.8z M189.5,101.4c2.2,0,3.8-1.1,3.8-3l0,0
			c0-1.8-1.4-2.9-3.7-2.9H185v6L189.5,101.4z"/>
		<path class="st0" d="M197.8,101.3L197.8,101.3c0-4.1,3.3-7.4,7.4-7.4s7.4,3.3,7.4,7.4l0,0c0,4.1-3.3,7.4-7.4,7.4
			S197.8,105.4,197.8,101.3L197.8,101.3 M211,101.3L211,101.3c0.1-3.2-2.4-5.9-5.6-6.1c-0.1,0-0.1,0-0.2,0c-3.2,0-5.7,2.6-5.7,5.8
			c0,0.1,0,0.1,0,0.2l0,0c-0.1,3.2,2.4,5.9,5.6,6.1c0.1,0,0.1,0,0.2,0c3.2,0,5.7-2.6,5.7-5.8C211,101.5,211,101.4,211,101.3"/>
		<path class="st0" d="M215.6,106.8c-0.2-0.1-0.3-0.4-0.3-0.6c0-0.4,0.3-0.8,0.8-0.8c0,0,0,0,0,0c0.2,0,0.4,0.1,0.5,0.2
			c1.3,1.2,2.9,1.8,4.6,1.8c2,0,3.2-1,3.2-2.5l0,0c0-1.4-0.7-2.1-3.8-2.8c-3.4-0.7-4.9-1.8-4.9-4.2l0,0c0-2.3,2-4,4.8-4
			c1.7-0.1,3.3,0.5,4.6,1.4c0.2,0.2,0.3,0.4,0.4,0.7c0,0.4-0.3,0.8-0.8,0.8c0,0,0,0,0,0c-0.2,0-0.3,0-0.5-0.1
			c-1.1-0.8-2.4-1.3-3.8-1.3c-1.9,0-3.1,1-3.1,2.4l0,0c0,1.4,0.7,2.2,4,2.9s4.8,1.9,4.8,4.2l0,0c0,2.5-2.1,4.2-5,4.2
			C219.1,108.9,217.1,108.2,215.6,106.8"/>
	</g>
</g>
</svg>
